<svg width="18" height="18" viewBox="0 0 18 18" fill="none" xmlns="http://www.w3.org/2000/svg">
<path fill-rule="evenodd" clip-rule="evenodd" d="M1.8894 5.86706C1.5 6.57846 1.5 7.43662 1.5 9.15294V10.2937C1.5 13.2194 1.5 14.6822 2.37868 15.5911C3.25736 16.5 4.67157 16.5 7.5 16.5H10.5C13.3284 16.5 14.7426 16.5 15.6213 15.5911C16.5 14.6822 16.5 13.2194 16.5 10.2937V9.15294C16.5 7.43662 16.5 6.57846 16.1106 5.86706C15.7212 5.15566 15.0098 4.71413 13.587 3.83109L12.087 2.90015C10.583 1.96672 9.83095 1.5 9 1.5C8.16905 1.5 7.41704 1.96672 5.91302 2.90015L4.41303 3.83109C2.99021 4.71414 2.2788 5.15566 1.8894 5.86706ZM7.08496 11.5481C6.83539 11.3631 6.4831 11.4155 6.29811 11.665C6.11311 11.9146 6.16547 12.2669 6.41504 12.4519C7.14435 12.9925 8.03627 13.3125 9 13.3125C9.96373 13.3125 10.8557 12.9925 11.585 12.4519C11.8345 12.2669 11.8869 11.9146 11.7019 11.665C11.5169 11.4155 11.1646 11.3631 10.915 11.5481C10.3688 11.953 9.70942 12.1875 9 12.1875C8.29058 12.1875 7.63121 11.953 7.08496 11.5481Z" fill="white"/>
</svg>
