<svg width="18" height="18" viewBox="0 0 18 18" fill="none" xmlns="http://www.w3.org/2000/svg">
<path d="M12 4.5C12 6.15685 10.6569 7.5 9 7.5C7.34315 7.5 6 6.15685 6 4.5C6 2.84315 7.34315 1.5 9 1.5C10.6569 1.5 12 2.84315 12 4.5Z" fill="#6B6B6B"/>
<path d="M11.7586 10.1271C11.4038 10.1314 11.0731 10.1443 10.7849 10.1831C10.3028 10.2479 9.77502 10.4028 9.33894 10.8389C8.90286 11.275 8.74792 11.8028 8.6831 12.2849C8.62484 12.7182 8.62492 13.2476 8.62501 13.8105V13.9395C8.62492 14.5024 8.62484 15.0318 8.6831 15.4651C8.72859 15.8034 8.81845 16.1642 9.01868 16.5C9.01246 16.5 9.00623 16.5 9 16.5C3 16.5 3 14.989 3 13.125C3 11.261 5.68629 9.75 9 9.75C9.99464 9.75 10.9327 9.88614 11.7586 10.1271Z" fill="#6B6B6B"/>
<path fill-rule="evenodd" clip-rule="evenodd" d="M10.1344 16.1156C10.5188 16.5 11.1376 16.5 12.375 16.5C13.6124 16.5 14.2312 16.5 14.6156 16.1156C15 15.7312 15 15.1124 15 13.875C15 12.6376 15 12.0188 14.6156 11.6344C14.2312 11.25 13.6124 11.25 12.375 11.25C11.1376 11.25 10.5188 11.25 10.1344 11.6344C9.75 12.0188 9.75 12.6376 9.75 13.875C9.75 15.1124 9.75 15.7312 10.1344 16.1156ZM11.6449 14.9824C11.1184 14.6053 10.5 14.1625 10.5 13.3948C10.5 12.5474 11.5313 11.9464 12.375 12.7611C13.2187 11.9464 14.25 12.5474 14.25 13.3948C14.25 14.1625 13.6316 14.6053 13.1051 14.9824C13.0503 15.0215 12.9966 15.06 12.9447 15.0981C12.75 15.2407 12.5625 15.375 12.375 15.375C12.1875 15.375 12 15.2407 11.8053 15.0981C11.7534 15.06 11.6997 15.0215 11.6449 14.9824Z" fill="#6B6B6B"/>
</svg>
